<svg xmlns="http://www.w3.org/2000/svg" xmlns:xlink="http://www.w3.org/1999/xlink" xml:space="preserve" width="1024" height="1024" viewBox="0 0 270.933 270.933"><defs><linearGradient id="a"><stop offset="0" style="stop-color:#b7e1ee;stop-opacity:1"/><stop offset="1" style="stop-color:#90c3f2;stop-opacity:1"/></linearGradient><linearGradient xlink:href="#a" id="b" x1="89.869" x2="156.16" y1="120.21" y2="120.21" gradientTransform="matrix(1.29393 0 0 1.29393 -39.469 -33.474)" gradientUnits="userSpaceOnUse"/></defs><g style="display:inline;stroke:none"><path d="m81.898 40.142-.25 32.512 20.305-19.806Z" style="fill:#67a8e7;fill-opacity:1;fill-rule:evenodd;stroke:none;stroke-width:.298732;stroke-linejoin:round;stroke-dasharray:none;stroke-opacity:1" transform="matrix(1.14602 0 0 1.14602 -17.287 -35.436)"/><path d="m157.136 39.893-9.467 5.48-8.844 9.468 19.183 18.81z" style="fill:#2f3fa5;fill-opacity:1;fill-rule:evenodd;stroke:none;stroke-width:.298732;stroke-linejoin:round;stroke-dasharray:none;stroke-opacity:1" transform="matrix(1.14602 0 0 1.14602 -17.287 -35.436)"/><path d="m135.96 51.976 11.71-6.602-8.845 9.467z" style="fill:#3d7ad9;fill-opacity:1;fill-rule:evenodd;stroke:none;stroke-width:.298732;stroke-linejoin:round;stroke-dasharray:none;stroke-opacity:1" transform="matrix(1.14602 0 0 1.14602 -17.287 -35.436)"/><path d="m105.814 56.006 13.293 23.75 14.564-24.049z" style="fill:#b2dff2;fill-opacity:1;fill-rule:evenodd;stroke:none;stroke-width:.298732;stroke-linejoin:round" transform="matrix(1.14602 0 0 1.14602 -17.287 -35.436)"/><path d="m105.814 56.006 13.293 23.75-12.845 12.024-26.509-8.141Z" style="fill:#abdbf2;fill-opacity:1;fill-rule:evenodd;stroke:none;stroke-width:.298732;stroke-linejoin:round" transform="matrix(1.14602 0 0 1.14602 -17.287 -35.436)"/><path d="m95.731 101.04 10.53-9.26-26.508-8.141Z" style="fill:#95d2f1;fill-opacity:1;fill-rule:evenodd;stroke:none;stroke-width:.298732;stroke-linejoin:round" transform="matrix(1.14602 0 0 1.14602 -17.287 -35.436)"/><path d="m95.731 101.04 10.53-9.26 12.624 4.726-14.076 16.016z" style="fill:#86c5ef;fill-opacity:1;fill-rule:evenodd;stroke:none;stroke-width:.298732;stroke-linejoin:round" transform="matrix(1.14602 0 0 1.14602 -17.287 -35.436)"/><path d="m133.97 112.392-15.085-15.886-14.076 16.016Z" style="fill:#4785e7;fill-opacity:1;fill-rule:evenodd;stroke:none;stroke-width:.298732;stroke-linejoin:round" transform="matrix(1.14602 0 0 1.14602 -17.287 -35.436)"/><path d="m133.97 112.392-15.085-15.886 14.307-5.49Z" style="fill:#5e96e1;fill-opacity:1;fill-rule:evenodd;stroke:none;stroke-width:.298732;stroke-linejoin:round" transform="matrix(1.14602 0 0 1.14602 -17.287 -35.436)"/><path d="m133.97 112.392 24.997-29.563-25.775 8.187z" style="fill:#548fe4;fill-opacity:1;fill-rule:evenodd;stroke:none;stroke-width:.298732;stroke-linejoin:round" transform="matrix(1.14602 0 0 1.14602 -17.287 -35.436)"/><path d="M119.107 79.755 106.26 91.78l12.624 4.726 14.307-5.49z" style="fill:#6eb9ef;fill-opacity:1;fill-rule:evenodd;stroke:none;stroke-width:.298732;stroke-linejoin:round" transform="matrix(1.14602 0 0 1.14602 -17.287 -35.436)"/><path d="m119.107 79.755 14.564-24.048 25.296 27.122-25.775 8.187z" style="fill:#64a6eb;fill-opacity:1;fill-rule:evenodd;stroke:none;stroke-width:.298732;stroke-linejoin:round" transform="matrix(1.14602 0 0 1.14602 -17.287 -35.436)"/></g><g style="display:inline;stroke:none"><path d="m76.987 105.276 85.433-.629-38.726 34.845z" style="display:inline;fill:url(#b);fill-opacity:1;fill-rule:evenodd;stroke:none;stroke-width:.342353;stroke-linecap:round;stroke-linejoin:round;stroke-dasharray:none;stroke-opacity:1"/><path d="m76.987 105.276 85.433-.63v-4.334l-85.433.066z" style="fill:#f5c760;fill-opacity:1;fill-rule:evenodd;stroke:none;stroke-width:.342353;stroke-linecap:round;stroke-linejoin:round;stroke-dasharray:none;stroke-opacity:1"/><path d="m76.987 105.276.359 14.178 17.796 49.45 28.552-29.412z" style="fill:#7bb7ee;fill-opacity:1;fill-rule:evenodd;stroke:none;stroke-width:.342353;stroke-linecap:round;stroke-linejoin:round;stroke-dasharray:none;stroke-opacity:1"/><path d="m144.77 153.934 17.65-49.287-38.726 34.845z" style="fill:#65a4ee;fill-opacity:1;fill-rule:evenodd;stroke:none;stroke-width:.342353;stroke-linecap:round;stroke-linejoin:round;stroke-dasharray:none;stroke-opacity:1"/><path d="m144.77 153.934 17.65-49.287 32.082 21.53z" style="fill:#3e70e0;fill-opacity:1;fill-rule:evenodd;stroke:none;stroke-width:.342353;stroke-linecap:round;stroke-linejoin:round;stroke-dasharray:none;stroke-opacity:1"/><path d="m144.77 153.934-34.64 61.707-14.988-46.738 28.552-29.41Z" style="fill:#4277e4;fill-opacity:1;fill-rule:evenodd;stroke:none;stroke-width:.342353;stroke-linecap:round;stroke-linejoin:round;stroke-dasharray:none;stroke-opacity:1"/><path d="m146.449 159.464-30.502 57.01 62.457-27.718z" style="fill:#597de1;fill-opacity:1;fill-rule:evenodd;stroke:none;stroke-width:.342353;stroke-linecap:round;stroke-linejoin:round;stroke-dasharray:none;stroke-opacity:1"/><path d="m206.243 215.505-90.296.969 62.457-27.718z" style="fill:#2f3190;fill-opacity:1;fill-rule:evenodd;stroke:none;stroke-width:.342353;stroke-linecap:round;stroke-linejoin:round;stroke-dasharray:none;stroke-opacity:1"/><path d="m149.536 154.683 56.586-27.416-28.203 53.258z" style="fill:#5479dc;fill-opacity:1;fill-rule:evenodd;stroke:none;stroke-width:.342353;stroke-linecap:round;stroke-linejoin:round;stroke-dasharray:none;stroke-opacity:1"/><path d="m205.698 206.73.424-79.463-28.203 53.258z" style="fill:#292c86;fill-opacity:1;fill-rule:evenodd;stroke:none;stroke-width:.342353;stroke-linecap:round;stroke-linejoin:round;stroke-dasharray:none;stroke-opacity:1"/><path d="M84.719 222.283 103.6 241.53l53.379 23.724-43.09-42.97z" style="fill:#73b0eb;fill-opacity:1;fill-rule:evenodd;stroke:none;stroke-width:.342353;stroke-linecap:round;stroke-linejoin:round;stroke-dasharray:none;stroke-opacity:1"/><path d="m161.577 222.283-4.597 42.97-43.09-42.97z" style="fill:#6093e2;fill-opacity:1;fill-rule:evenodd;stroke:none;stroke-width:.342353;stroke-linecap:round;stroke-linejoin:round;stroke-dasharray:none;stroke-opacity:1"/><path d="m161.577 222.283-4.597 42.97 46.691-42.97z" style="fill:#3f67c9;fill-opacity:1;fill-rule:evenodd;stroke:none;stroke-width:.342353;stroke-linecap:round;stroke-linejoin:round;stroke-dasharray:none;stroke-opacity:1"/></g><path d="M94.088 76.843c4.481 5.377 9.634 6.87 15.086 1.046M143.603 76.992c-4.48 5.378-9.634 6.871-15.086 1.046" style="display:inline;fill:none;fill-rule:evenodd;stroke:#18224d;stroke-width:4.02513;stroke-linecap:round;stroke-linejoin:round;stroke-dasharray:none;stroke-opacity:1" transform="matrix(1.14602 0 0 1.14602 -17.287 -35.436)"/><path d="m113.357 88.53 10.493.076-4.892 6.609z" style="display:inline;fill:#18224d;fill-opacity:1;fill-rule:evenodd;stroke:#18224d;stroke-width:2.10571;stroke-linecap:round;stroke-linejoin:round;stroke-dasharray:none;stroke-opacity:1" transform="matrix(1.14602 0 0 1.14602 -17.287 -35.436)"/><path d="m176.133 77.98-11.495.36M174.549 95.196l-9.277-5.608M64.301 95.302l9.277-5.608M62.4 77.664l11.495.359" style="display:inline;fill:none;fill-rule:evenodd;stroke:#18224d;stroke-width:4.02513;stroke-linecap:round;stroke-linejoin:round;stroke-dasharray:none;stroke-opacity:1" transform="matrix(1.14602 0 0 1.14602 -17.287 -35.436)"/></svg>